<svg id="svg" version="1.1" xmlns="http://www.w3.org/2000/svg" xmlns:xlink="http://www.w3.org/1999/xlink" width="400" height="517.8947368421053" viewBox="0, 0, 400,517.8947368421053"><g id="svgg"><path id="path0" d="M175.789 13.451 C 165.948 18.894,164.481 30.899,169.441 65.433 C 175.458 107.328,178.439 189.474,173.943 189.474 C 173.608 189.474,173.334 188.921,173.335 188.246 C 173.347 181.470,166.933 131.781,164.435 119.298 C 153.986 67.080,121.957 14.155,104.776 20.717 C 95.643 24.204,98.033 38.125,114.713 78.596 C 139.317 138.300,145.965 167.732,145.965 216.969 L 145.965 233.734 142.632 235.231 C 137.069 237.728,134.684 237.370,124.508 232.512 C 77.258 209.952,32.590 235.864,29.403 287.684 C 28.570 301.224,28.328 301.960,22.392 309.005 C 6.204 328.215,12.882 359.938,41.612 400.316 C 69.088 438.932,123.574 473.016,175.439 484.031 C 219.126 493.309,276.549 469.347,325.518 421.404 C 371.895 375.997,389.806 335.700,382.487 293.228 C 378.362 269.285,373.363 263.127,351.538 255.101 C 337.361 249.887,332.586 246.404,330.261 239.583 C 326.582 228.784,311.231 215.341,297.895 211.240 C 296.351 210.765,292.246 208.679,288.772 206.605 C 277.916 200.121,263.819 195.843,247.200 193.990 C 241.889 193.398,237.208 192.803,236.796 192.669 C 233.407 191.560,232.229 175.111,234.345 158.448 C 242.394 95.071,235.770 54.183,218.615 61.350 C 212.798 63.781,212.404 66.309,209.799 117.895 C 208.358 146.431,205.574 162.695,202.831 158.596 C 201.426 156.497,202.584 122.546,204.877 98.596 C 208.209 63.810,203.833 37.738,192.027 22.033 C 186.535 14.726,179.861 11.199,175.789 13.451 M184.729 27.386 C 196.039 44.463,197.291 57.627,193.641 121.053 C 192.087 148.061,192.892 164.924,196.201 174.670 C 196.791 176.408,197.088 178.634,196.861 179.617 C 196.597 180.760,196.671 181.072,197.065 180.482 C 197.863 179.290,203.990 202.037,204.638 208.596 C 205.171 213.991,205.596 214.318,207.619 210.889 C 210.645 205.761,211.228 202.007,210.770 190.625 C 210.341 179.989,211.112 172.986,213.523 165.614 C 213.965 164.263,214.354 163.000,214.388 162.807 C 215.228 158.021,215.559 157.279,216.692 157.642 C 217.605 157.934,217.668 157.865,216.953 157.353 C 216.168 156.792,216.201 155.521,217.150 149.743 C 217.788 145.860,218.585 134.620,218.960 124.211 C 220.965 68.635,221.435 64.729,225.154 72.807 C 229.731 82.750,229.765 114.258,225.241 153.684 C 224.465 160.439,223.484 169.191,223.060 173.133 L 222.289 180.301 225.117 187.870 C 228.749 197.588,229.976 203.603,228.836 206.104 C 226.600 211.012,231.043 208.722,234.892 202.982 C 236.839 200.079,238.302 202.932,236.547 206.212 C 236.041 207.157,236.191 207.419,237.239 207.419 C 238.087 207.419,238.332 207.174,237.908 206.750 C 236.634 205.476,241.372 202.805,244.873 202.823 C 248.269 202.841,262.785 205.581,268.070 207.203 L 271.228 208.172 267.719 208.707 C 263.654 209.327,254.436 213.464,248.834 217.183 C 246.635 218.642,244.594 219.535,244.123 219.244 C 243.640 218.946,243.477 219.030,243.734 219.446 C 244.486 220.662,237.184 226.361,236.374 225.189 C 235.883 224.478,235.814 224.628,236.125 225.737 C 236.382 226.653,236.182 227.496,235.628 227.843 C 235.119 228.161,234.144 229.300,233.461 230.373 C 232.762 231.472,231.878 232.115,231.440 231.844 C 230.982 231.561,230.857 231.680,231.136 232.132 C 231.398 232.556,230.556 234.579,229.264 236.627 C 222.763 246.936,220.174 259.436,220.066 281.026 C 219.989 296.613,220.199 297.358,226.547 304.089 C 228.735 306.409,230.083 308.048,229.541 307.730 C 228.890 307.348,228.719 307.417,229.037 307.931 C 229.302 308.360,229.941 308.548,230.458 308.350 C 230.975 308.152,231.833 308.415,232.366 308.934 C 233.750 310.287,241.844 314.386,243.129 314.386 C 244.836 314.386,244.390 313.440,242.055 312.112 C 240.753 311.371,240.108 310.569,240.414 310.074 C 240.739 309.548,240.612 309.447,240.056 309.790 C 239.007 310.438,235.641 307.475,236.270 306.456 C 236.511 306.067,236.397 305.941,236.016 306.176 C 235.406 306.553,230.529 301.992,228.194 298.861 C 226.783 296.970,227.898 295.065,229.544 296.555 C 230.259 297.202,230.643 298.084,230.397 298.515 C 230.151 298.946,230.202 299.071,230.510 298.793 C 230.817 298.515,232.671 299.728,234.629 301.489 C 247.845 313.372,270.678 316.303,290.526 308.664 C 291.877 308.145,293.140 307.558,293.333 307.362 C 293.526 307.165,294.947 306.376,296.491 305.607 C 302.063 302.834,319.383 288.309,319.496 286.316 C 319.596 284.540,322.468 282.242,323.792 282.879 C 325.172 283.542,325.184 283.522,323.987 282.558 C 322.766 281.574,322.795 281.396,324.656 278.484 C 325.726 276.809,326.666 275.123,326.745 274.737 C 326.823 274.351,327.523 272.614,328.299 270.877 C 329.075 269.140,330.409 265.295,331.264 262.333 C 332.836 256.883,333.995 256.146,336.219 259.183 C 336.455 259.505,336.872 259.695,337.146 259.604 C 338.218 259.250,350.132 265.467,349.705 266.158 C 349.451 266.569,349.597 266.673,350.043 266.398 C 351.102 265.743,356.659 268.635,356.095 269.548 C 355.849 269.945,356.075 270.198,356.596 270.110 C 358.699 269.756,364.656 273.547,362.982 274.174 C 362.500 274.355,362.105 274.831,362.105 275.232 C 362.105 275.651,362.586 275.562,363.234 275.025 C 366.758 272.100,374.092 300.905,372.988 313.333 C 371.254 332.843,357.478 375.576,354.818 369.698 C 354.588 369.189,354.559 369.433,354.756 370.241 C 354.966 371.106,354.531 372.448,353.697 373.509 C 352.918 374.499,352.272 375.575,352.261 375.900 C 352.231 376.802,348.086 382.093,347.331 382.193 C 346.966 382.241,346.385 382.320,346.040 382.368 C 345.695 382.417,345.208 382.991,344.957 383.645 C 344.557 384.687,344.678 384.673,345.935 383.536 C 348.558 381.162,347.408 383.449,343.478 388.421 C 338.230 395.059,325.013 409.141,318.776 414.737 C 315.980 417.246,312.549 420.321,311.152 421.571 C 309.756 422.821,308.325 423.666,307.973 423.449 C 307.621 423.231,307.420 423.330,307.526 423.668 C 308.130 425.594,295.184 434.657,293.204 433.695 C 291.704 432.966,291.678 432.985,292.865 433.941 C 294.098 434.933,294.084 435.012,292.529 435.845 C 291.636 436.322,290.472 437.147,289.941 437.679 C 289.386 438.233,288.335 438.465,287.470 438.223 C 286.371 437.916,286.229 437.985,286.944 438.479 C 290.656 441.045,247.214 463.183,224.912 470.090 C 200.636 477.609,166.765 475.879,148.607 466.193 C 147.347 465.521,146.158 464.942,145.965 464.907 C 140.159 463.850,104.754 444.900,105.706 443.360 C 105.996 442.891,105.858 442.791,105.353 443.102 C 103.866 444.021,77.985 425.422,78.438 423.760 C 78.544 423.371,78.305 423.255,77.907 423.501 C 76.960 424.087,68.668 416.175,69.247 415.238 C 69.506 414.818,69.344 414.734,68.855 415.036 C 67.856 415.654,57.544 405.881,57.544 404.317 C 57.544 403.744,57.339 403.479,57.090 403.729 C 56.509 404.310,52.635 399.159,53.094 398.416 C 53.283 398.110,53.125 397.947,52.743 398.053 C 51.667 398.352,45.601 390.311,40.182 381.404 C 34.264 371.675,29.341 360.323,26.486 349.825 C 23.583 339.145,25.014 316.730,28.403 319.811 C 28.730 320.108,28.769 319.955,28.491 319.472 C 27.729 318.148,32.375 313.495,33.881 314.073 C 34.540 314.326,34.925 314.783,34.737 315.088 C 34.548 315.393,34.798 315.797,35.291 315.987 C 35.784 316.176,36.904 317.709,37.780 319.393 C 40.779 325.164,39.762 324.839,51.588 323.800 C 61.212 322.954,68.462 321.929,71.842 320.937 C 72.753 320.670,72.997 320.813,72.633 321.401 C 72.318 321.912,72.773 321.829,73.773 321.194 C 74.689 320.613,76.544 319.922,77.895 319.659 C 88.372 317.616,115.012 307.394,119.645 303.638 C 120.033 303.323,121.930 302.137,123.860 301.002 C 128.657 298.182,129.736 297.446,131.806 295.589 C 132.789 294.706,134.025 294.150,134.552 294.353 C 135.080 294.555,135.349 294.458,135.151 294.137 C 134.952 293.816,136.699 291.706,139.033 289.448 C 144.253 284.399,146.711 280.863,148.669 275.588 C 150.961 269.408,150.331 266.441,147.308 269.178 C 145.407 270.898,144.331 269.637,144.670 266.085 C 144.818 264.540,144.735 263.402,144.487 263.555 C 144.238 263.709,143.624 262.340,143.122 260.514 C 142.621 258.687,141.652 256.088,140.970 254.737 C 138.523 249.889,138.554 248.641,141.160 247.041 C 144.155 245.202,145.331 245.444,146.170 248.070 C 147.904 253.504,153.124 255.920,161.607 255.218 C 173.035 254.271,173.268 253.722,163.509 250.740 L 156.842 248.702 156.351 223.825 C 155.580 184.747,152.805 160.207,146.673 138.246 C 144.992 132.226,144.576 129.887,144.972 128.672 C 145.269 127.758,145.202 127.638,144.746 128.271 C 144.282 128.915,143.845 128.314,143.217 126.165 C 142.733 124.511,140.799 118.763,138.919 113.390 C 137.040 108.018,135.696 103.282,135.934 102.864 C 136.171 102.447,136.110 102.337,135.797 102.619 C 135.289 103.079,130.766 93.149,130.289 90.526 C 130.184 89.947,129.569 88.476,128.923 87.256 C 128.277 86.037,127.102 83.352,126.311 81.291 C 125.520 79.230,124.584 76.912,124.229 76.140 C 118.104 62.793,111.982 46.133,109.787 36.842 C 108.634 31.960,108.426 27.139,109.438 28.738 C 109.793 29.299,109.922 30.017,109.726 30.335 C 109.530 30.652,109.630 30.867,109.948 30.811 C 111.593 30.526,112.394 30.973,112.013 31.966 C 111.783 32.565,111.856 32.894,112.174 32.698 C 112.786 32.319,118.596 37.256,118.596 38.154 C 118.596 38.443,118.202 38.442,117.719 38.152 C 117.116 37.790,117.141 37.994,117.799 38.805 C 118.325 39.454,118.987 39.841,119.270 39.666 C 120.678 38.797,130.010 51.578,129.445 53.602 C 129.162 54.616,129.234 54.796,129.670 54.169 C 130.470 53.019,130.939 53.744,136.621 64.912 C 146.829 84.978,155.012 113.744,158.580 142.105 C 159.357 148.281,160.315 155.702,160.709 158.596 C 161.103 161.491,162.221 170.807,163.192 179.298 C 164.164 187.789,165.470 197.263,166.095 200.351 C 166.720 203.439,167.291 206.439,167.366 207.018 C 167.686 209.508,171.396 216.441,174.348 220.065 C 176.107 222.224,177.339 224.326,177.085 224.735 C 176.826 225.154,176.956 225.276,177.382 225.012 C 178.704 224.195,183.022 231.381,183.506 235.202 C 183.922 238.494,184.416 238.402,186.040 234.730 C 187.867 230.601,187.538 226.563,184.957 221.404 C 183.186 217.864,182.288 206.016,183.684 204.620 C 183.974 204.330,184.243 202.620,184.283 200.819 C 184.350 197.761,184.676 194.358,186.714 175.439 C 188.704 156.964,184.977 96.398,179.631 60.351 C 177.852 48.354,177.335 26.869,178.749 23.698 C 179.929 21.052,180.954 21.684,184.729 27.386 M181.955 65.614 C 181.960 67.544,182.097 68.250,182.258 67.183 C 182.419 66.117,182.415 64.538,182.248 63.675 C 182.082 62.811,181.950 63.684,181.955 65.614 M221.946 81.404 C 221.946 83.140,222.082 83.851,222.250 82.982 C 222.417 82.114,222.417 80.693,222.250 79.825 C 222.082 78.956,221.946 79.667,221.946 81.404 M193.174 109.474 C 193.174 111.211,193.310 111.921,193.478 111.053 C 193.645 110.184,193.645 108.763,193.478 107.895 C 193.310 107.026,193.174 107.737,193.174 109.474 M191.770 126.316 C 191.770 128.053,191.907 128.763,192.074 127.895 C 192.241 127.026,192.241 125.605,192.074 124.737 C 191.907 123.868,191.770 124.579,191.770 126.316 M191.770 160.000 C 191.770 161.737,191.907 162.447,192.074 161.579 C 192.241 160.711,192.241 159.289,192.074 158.421 C 191.907 157.553,191.770 158.263,191.770 160.000 M160.000 170.485 C 160.000 171.620,160.250 172.703,160.555 172.892 C 160.860 173.081,160.984 172.152,160.829 170.828 C 160.485 167.879,160.000 167.678,160.000 170.485 M211.419 185.263 C 211.419 187.000,211.556 187.711,211.723 186.842 C 211.891 185.974,211.891 184.553,211.723 183.684 C 211.556 182.816,211.419 183.526,211.419 185.263 M211.846 192.434 C 212.169 194.383,212.268 194.482,212.489 193.077 C 212.633 192.164,212.461 191.128,212.108 190.774 C 211.718 190.385,211.615 191.040,211.846 192.434 M293.150 217.266 C 300.516 219.185,313.024 227.002,311.826 228.939 C 311.568 229.358,311.689 229.488,312.102 229.234 C 315.401 227.195,322.506 243.157,322.285 252.110 C 322.104 259.418,314.544 277.539,312.264 276.130 C 311.896 275.903,311.759 276.143,311.958 276.663 C 312.423 277.874,304.688 286.477,303.689 285.860 C 303.278 285.605,303.137 285.714,303.376 286.101 C 303.836 286.845,299.082 291.001,298.112 290.702 C 297.800 290.605,297.623 290.863,297.719 291.275 C 297.959 292.295,289.835 296.668,283.994 298.663 C 271.027 303.092,257.423 302.146,245.271 295.970 C 241.666 294.138,241.741 293.928,246.316 293.053 C 260.433 290.354,271.679 286.525,286.922 279.227 C 292.466 276.573,297.289 274.579,297.641 274.797 C 297.993 275.014,298.194 274.833,298.088 274.395 C 297.982 273.957,299.158 272.898,300.702 272.042 C 312.276 265.627,314.869 262.811,312.512 259.214 C 311.509 257.683,311.484 257.321,312.336 256.716 C 313.175 256.120,313.164 256.061,312.265 256.342 C 311.647 256.535,310.022 255.495,308.406 253.872 C 298.057 243.482,275.866 245.166,261.053 257.465 C 259.154 259.041,258.892 259.250,255.903 261.564 C 254.807 262.413,251.059 265.723,247.573 268.922 C 244.088 272.120,240.721 275.026,240.092 275.379 C 239.462 275.732,238.789 276.221,238.596 276.465 C 237.776 277.505,233.683 280.046,233.673 279.521 C 233.668 279.206,233.379 279.396,233.031 279.945 C 232.551 280.704,232.117 280.285,231.218 278.190 C 228.648 272.210,232.139 244.844,235.229 246.754 C 235.528 246.939,235.602 246.643,235.392 246.097 C 234.633 244.118,241.416 233.977,242.664 235.226 C 243.218 235.779,243.332 235.615,243.075 234.635 C 242.737 233.342,245.168 230.296,246.214 230.702 C 246.463 230.798,246.667 230.588,246.667 230.234 C 246.667 228.748,254.434 222.888,255.517 223.557 C 256.016 223.866,256.174 223.780,255.905 223.345 C 255.000 221.881,266.760 217.349,274.720 216.094 C 279.213 215.386,288.102 215.951,293.150 217.266 M276.667 217.326 C 277.342 217.502,278.447 217.502,279.123 217.326 C 279.798 217.149,279.246 217.005,277.895 217.005 C 276.544 217.005,275.991 217.149,276.667 217.326 M188.119 226.374 C 188.147 227.500,188.448 229.053,188.790 229.825 C 189.205 230.762,189.273 230.179,188.994 228.070 C 188.502 224.351,188.050 223.473,188.119 226.374 M106.092 237.231 C 114.190 239.642,122.632 244.194,121.726 245.660 C 121.509 246.012,121.770 246.131,122.307 245.925 C 123.478 245.476,125.220 247.355,124.585 248.382 C 124.329 248.797,124.557 248.946,125.118 248.731 C 126.339 248.262,130.102 253.018,129.404 254.148 C 129.108 254.627,129.214 254.763,129.668 254.483 C 130.823 253.769,131.388 255.231,130.557 256.785 C 130.055 257.724,130.050 258.302,130.542 258.606 C 130.938 258.851,131.218 258.791,131.162 258.473 C 130.927 257.120,131.268 255.946,131.754 256.433 C 132.044 256.722,132.292 257.170,132.306 257.427 C 132.319 257.684,132.734 258.622,133.227 259.510 C 135.544 263.684,136.813 275.207,135.472 279.883 C 134.758 282.373,130.660 286.481,129.565 285.804 C 129.202 285.580,129.124 285.750,129.390 286.180 C 129.680 286.650,128.750 287.537,127.069 288.395 C 123.980 289.971,125.183 290.153,113.333 286.313 C 107.499 284.423,96.484 279.790,86.408 274.989 C 71.382 267.829,59.381 266.433,47.857 270.505 C 41.887 272.615,41.275 272.454,42.222 269.025 C 46.080 255.052,68.980 234.505,78.374 236.587 C 78.689 236.657,79.421 236.516,80.000 236.274 C 83.754 234.706,99.560 235.286,106.092 237.231 M292.310 253.785 C 302.734 267.452,276.471 285.285,263.857 273.105 C 260.023 269.403,259.000 266.734,260.409 264.102 C 261.973 261.180,263.740 260.662,264.284 262.967 C 265.908 269.847,273.134 275.086,279.235 273.806 C 289.168 271.722,293.751 264.293,290.693 255.234 C 289.127 250.594,289.572 250.195,292.310 253.785 M303.986 256.144 L 307.719 259.656 305.457 261.619 C 304.212 262.698,301.923 264.296,300.369 265.169 L 297.544 266.756 297.544 260.804 C 297.544 251.267,298.255 250.752,303.986 256.144 M192.332 258.691 C 189.479 262.318,191.209 267.243,195.013 266.328 C 198.241 265.551,200.103 261.622,198.701 258.545 C 197.604 256.138,194.279 256.215,192.332 258.691 M197.048 260.795 C 197.286 262.391,194.841 264.925,193.728 264.238 C 192.543 263.505,192.863 260.490,194.211 259.707 C 195.853 258.752,196.798 259.114,197.048 260.795 M180.958 260.710 C 176.938 262.894,175.170 268.369,177.211 272.316 C 179.608 276.950,187.808 274.405,189.499 268.502 C 191.348 262.049,186.550 257.672,180.958 260.710 M187.110 264.474 C 188.794 267.869,185.670 272.281,181.581 272.281 C 177.819 272.281,177.375 266.602,180.918 263.815 C 183.232 261.995,186.028 262.292,187.110 264.474 M249.070 265.789 L 247.368 267.719 249.474 265.965 C 250.632 265.000,251.711 264.132,251.871 264.035 C 252.032 263.939,251.850 263.860,251.467 263.860 C 251.084 263.860,250.005 264.728,249.070 265.789 M257.288 270.260 C 257.645 272.490,258.696 274.163,261.884 277.571 C 264.158 280.001,265.760 282.149,265.445 282.344 C 262.383 284.236,244.086 287.223,237.639 286.883 L 233.523 286.667 242.902 278.206 C 256.437 265.995,256.592 265.909,257.288 270.260 M67.822 271.943 C 68.047 272.530,68.017 275.009,67.755 277.452 L 67.279 281.895 59.429 282.231 C 46.677 282.775,38.947 282.069,38.947 280.358 C 38.947 275.414,66.115 267.497,67.822 271.943 M174.792 271.620 C 174.762 272.222,175.228 273.327,175.828 274.076 C 176.902 275.417,176.909 275.416,176.274 274.035 C 175.919 273.263,175.453 272.158,175.238 271.579 C 174.901 270.670,174.840 270.675,174.792 271.620 M355.180 272.521 C 354.750 273.039,354.564 273.628,354.767 273.831 C 357.440 276.504,356.218 293.029,352.546 303.860 C 350.080 311.134,342.565 326.466,341.721 325.944 C 341.482 325.797,341.287 326.066,341.287 326.544 C 341.287 327.911,338.861 331.258,338.177 330.835 C 337.838 330.625,337.739 330.919,337.957 331.488 C 338.175 332.057,337.698 333.179,336.896 333.981 C 336.095 334.783,335.439 335.610,335.439 335.820 C 335.439 336.723,329.616 343.813,329.124 343.509 C 328.825 343.324,328.150 343.723,327.623 344.394 C 326.758 345.498,326.783 345.522,327.895 344.651 C 329.765 343.184,329.359 344.589,327.288 346.751 C 326.279 347.804,325.094 348.584,324.656 348.483 C 324.218 348.383,324.098 348.433,324.390 348.596 C 324.682 348.759,324.733 349.196,324.503 349.568 C 324.246 349.984,323.705 349.928,323.095 349.422 C 322.470 348.903,322.105 348.869,322.105 349.329 C 322.105 349.730,322.500 350.191,322.982 350.354 C 323.661 350.582,323.636 350.920,322.869 351.849 C 322.083 352.800,321.750 352.860,321.261 352.138 C 320.807 351.470,320.698 351.556,320.848 352.464 C 321.277 355.057,307.358 367.912,305.664 366.487 C 304.226 365.276,304.224 365.279,305.475 366.762 C 306.947 368.507,304.244 371.525,301.885 370.772 C 301.032 370.499,300.951 370.574,301.596 371.038 C 302.775 371.888,300.140 374.421,298.883 373.645 C 298.373 373.329,298.210 373.409,298.478 373.843 C 298.889 374.508,294.765 378.402,292.022 379.940 C 291.392 380.293,290.719 380.786,290.526 381.035 C 288.820 383.238,280.519 388.114,279.137 387.725 C 277.911 387.380,277.786 387.442,278.593 387.996 C 279.657 388.726,277.922 390.795,276.196 390.855 C 275.840 390.867,274.926 391.430,274.164 392.105 C 272.816 393.300,272.802 393.289,273.642 391.689 C 274.550 389.959,275.082 382.377,274.259 382.885 C 273.996 383.048,273.583 382.860,273.340 382.468 C 273.082 382.050,273.717 381.748,274.871 381.739 C 280.637 381.694,285.014 377.335,282.160 374.479 C 280.468 372.786,265.895 372.382,266.136 374.035 C 266.268 374.938,265.052 376.794,264.536 376.476 C 264.218 376.279,263.728 376.487,263.449 376.939 C 263.132 377.452,263.245 377.573,263.751 377.260 C 264.210 376.977,264.561 377.168,264.561 377.700 C 264.561 378.218,263.770 378.707,262.802 378.787 C 258.760 379.121,252.632 383.293,252.632 385.710 C 252.632 386.236,252.379 386.667,252.071 386.667 C 251.307 386.667,251.831 391.552,252.807 393.533 C 253.995 395.945,257.657 397.887,261.135 397.950 C 262.827 397.981,263.737 398.179,263.158 398.391 C 262.579 398.603,260.053 399.793,257.544 401.035 C 255.035 402.277,252.751 403.356,252.469 403.432 C 251.284 403.750,246.572 405.703,245.410 406.357 C 244.719 406.747,243.850 406.878,243.480 406.649 C 243.110 406.420,242.807 406.530,242.807 406.893 C 242.807 407.612,240.338 408.533,228.070 412.390 C 203.663 420.063,176.354 424.083,152.632 423.496 C 146.456 423.343,140.772 423.203,140.000 423.184 C 115.936 422.602,78.766 410.899,61.229 398.383 C 57.385 395.639,56.626 396.413,59.879 399.762 C 61.980 401.925,62.265 402.554,61.556 403.465 C 60.794 404.443,60.842 404.451,61.996 403.543 C 63.151 402.635,63.415 402.683,64.452 403.993 C 66.080 406.049,78.413 415.764,83.707 419.160 C 84.804 419.864,85.448 420.754,85.177 421.192 C 84.891 421.655,85.014 421.774,85.482 421.485 C 86.519 420.844,96.231 426.655,95.662 427.575 C 95.405 427.990,95.572 428.070,96.063 427.767 C 96.525 427.481,97.284 427.564,97.750 427.950 C 98.216 428.336,104.199 431.472,111.046 434.918 C 117.893 438.364,123.261 441.442,122.975 441.757 C 122.690 442.072,122.858 442.098,123.350 441.815 C 124.541 441.129,130.625 443.483,130.053 444.409 C 129.808 444.805,129.939 444.924,130.344 444.674 C 130.749 444.424,135.140 445.640,140.101 447.376 C 171.250 458.275,202.475 460.142,235.439 453.077 C 241.033 451.878,257.269 446.047,261.230 443.815 C 262.292 443.216,263.525 442.951,263.970 443.226 C 264.434 443.513,264.589 443.419,264.333 443.005 C 264.083 442.601,265.653 441.475,267.909 440.441 C 272.484 438.343,275.665 436.541,277.046 435.263 C 277.568 434.781,278.266 434.386,278.596 434.386 C 278.927 434.386,279.615 433.985,280.125 433.494 C 280.635 433.004,282.789 431.505,284.912 430.163 C 287.035 428.822,289.541 427.091,290.481 426.318 C 294.197 423.261,304.342 414.055,306.576 411.712 C 308.044 410.173,309.375 409.369,310.085 409.594 C 310.923 409.860,310.989 409.784,310.332 409.312 C 309.638 408.811,309.795 408.277,311.034 406.935 C 311.913 405.983,314.684 402.848,317.193 399.970 C 319.702 397.092,321.926 394.579,322.136 394.386 C 322.489 394.062,331.375 382.186,334.230 378.223 C 334.916 377.271,336.678 374.674,338.145 372.453 C 339.612 370.232,341.075 368.653,341.396 368.944 C 341.717 369.235,341.751 369.077,341.472 368.592 C 341.192 368.107,341.571 366.843,342.312 365.785 C 345.193 361.673,351.579 349.438,351.579 348.032 C 351.579 347.622,351.944 347.511,352.389 347.786 C 352.844 348.067,353.010 347.982,352.769 347.591 C 352.323 346.869,356.027 336.612,356.547 337.132 C 356.709 337.294,356.866 336.743,356.895 335.906 C 356.925 335.070,357.766 331.386,358.764 327.719 C 363.557 310.123,364.851 288.437,361.619 279.883 C 360.792 277.697,360.248 275.723,360.409 275.497 C 360.570 275.272,360.492 275.244,360.236 275.436 C 359.981 275.628,359.196 274.838,358.492 273.682 C 357.082 271.363,356.353 271.107,355.180 272.521 M76.045 274.561 C 77.298 276.558,78.104 281.042,77.534 282.838 C 76.455 286.237,70.877 282.179,70.877 277.994 C 70.877 273.703,74.146 271.532,76.045 274.561 M331.830 275.263 C 331.776 275.360,331.676 277.713,331.608 280.493 C 331.458 286.634,329.652 290.755,327.386 290.127 C 326.248 289.811,326.175 289.877,327.018 290.455 C 328.036 291.155,321.452 298.947,319.842 298.947 C 319.536 298.947,318.357 299.775,317.222 300.786 C 314.806 302.939,305.180 308.815,299.649 311.513 C 290.335 316.057,283.133 320.998,287.719 319.696 C 288.491 319.477,289.794 319.107,290.614 318.872 C 291.702 318.561,291.958 318.686,291.558 319.331 C 291.200 319.911,291.295 320.042,291.833 319.709 C 292.285 319.430,292.444 318.861,292.187 318.446 C 291.872 317.935,292.380 317.844,293.755 318.165 C 295.076 318.473,295.452 318.414,294.828 317.998 C 294.116 317.523,294.570 317.128,296.583 316.473 C 300.529 315.188,310.572 310.488,312.876 308.848 C 314.124 307.959,315.481 307.578,316.550 307.815 C 317.759 308.084,317.972 307.998,317.293 307.517 C 316.600 307.025,316.561 306.707,317.149 306.343 C 317.593 306.069,318.495 306.266,319.154 306.782 C 320.230 307.625,320.254 307.596,319.395 306.500 C 318.566 305.443,318.613 305.215,319.746 304.796 C 320.464 304.530,321.211 304.117,321.404 303.877 C 321.596 303.637,322.860 302.684,324.211 301.759 C 329.156 298.371,332.044 294.561,333.619 289.346 C 335.189 284.152,334.861 278.830,332.882 277.383 C 331.761 276.564,331.728 276.346,332.635 275.773 C 333.334 275.331,333.391 275.106,332.807 275.098 C 332.325 275.093,331.885 275.167,331.830 275.263 M340.747 279.270 C 340.775 281.408,341.165 283.837,341.614 284.668 C 342.330 285.991,342.269 286.136,341.122 285.836 C 332.849 283.672,330.712 300.901,338.726 305.152 C 345.301 308.640,352.948 299.206,348.825 292.693 C 348.418 292.050,348.545 291.355,349.186 290.713 C 352.409 287.490,347.559 276.389,342.611 275.662 C 340.720 275.385,340.698 275.426,340.747 279.270 M347.089 282.244 C 348.429 284.834,348.381 288.421,347.007 288.421 C 344.883 288.421,341.552 280.628,342.807 278.596 C 343.420 277.604,345.690 279.537,347.089 282.244 M351.270 282.539 C 350.623 285.117,351.136 285.271,352.076 282.780 C 352.507 281.637,352.606 280.702,352.296 280.702 C 351.985 280.702,351.524 281.528,351.270 282.539 M65.253 288.103 C 76.540 289.933,95.974 295.371,94.937 296.408 C 94.658 296.687,94.902 296.735,95.480 296.513 C 96.058 296.291,98.417 296.766,100.722 297.567 C 103.026 298.369,105.498 299.211,106.214 299.438 C 109.273 300.409,76.794 312.522,63.158 315.496 C 58.065 316.607,49.525 316.842,50.135 315.855 C 50.351 315.505,49.936 315.373,49.213 315.563 C 45.159 316.623,36.408 293.659,39.193 289.268 C 40.706 286.884,54.054 286.286,65.253 288.103 M106.316 289.748 C 106.316 292.013,104.622 292.931,101.518 292.348 C 96.738 291.452,98.795 287.543,103.860 287.898 C 105.934 288.043,106.316 288.331,106.316 289.748 M228.053 294.737 C 228.024 297.286,226.573 296.557,224.982 293.194 C 222.545 288.042,222.682 287.625,225.607 291.305 C 226.954 292.999,228.055 294.544,228.053 294.737 M344.060 290.097 C 348.639 294.341,347.602 302.581,342.434 303.016 C 340.576 303.172,339.583 302.821,338.466 301.612 C 332.645 295.312,337.935 284.421,344.060 290.097 M118.070 290.563 C 121.506 291.518,121.391 292.252,117.574 293.710 C 112.880 295.503,109.212 294.048,110.429 290.877 C 110.905 289.637,114.240 289.500,118.070 290.563 M230.877 299.971 C 230.877 300.732,233.718 303.158,234.610 303.158 C 235.002 303.158,235.190 303.079,235.029 302.982 C 234.868 302.886,233.868 302.041,232.807 301.106 C 231.746 300.170,230.877 299.659,230.877 299.971 M133.305 316.014 C 131.437 317.445,127.624 323.652,128.004 324.643 C 128.646 326.315,130.161 324.987,132.533 320.673 C 134.911 316.348,135.207 314.556,133.305 316.014 M232.947 317.829 C 233.370 318.619,234.351 319.606,235.126 320.021 C 235.902 320.436,236.447 321.278,236.338 321.894 C 236.229 322.509,236.614 323.148,237.193 323.314 C 238.129 323.582,238.129 323.533,237.193 322.871 C 236.614 322.462,236.411 322.122,236.741 322.116 C 237.666 322.099,241.777 325.764,241.579 326.429 C 241.482 326.753,241.640 326.955,241.930 326.879 C 243.645 326.425,245.648 327.920,245.247 329.355 C 244.941 330.446,245.010 330.603,245.489 329.912 C 246.052 329.098,246.638 329.122,249.219 330.065 C 260.941 334.348,278.790 333.113,294.912 326.905 C 297.904 325.753,300.351 324.517,300.351 324.160 C 300.351 323.175,297.197 323.379,294.225 324.557 C 284.253 328.506,267.098 330.009,256.670 327.847 C 247.680 325.983,239.627 322.376,240.877 320.773 C 241.658 319.773,241.617 319.757,240.506 320.629 C 239.417 321.484,239.057 321.433,237.699 320.233 C 234.506 317.412,232.062 316.175,232.947 317.829 M350.396 332.071 C 349.000 334.462,347.368 335.438,347.368 333.883 C 347.368 333.349,348.237 331.566,349.298 329.921 C 351.619 326.324,352.615 328.273,350.396 332.071 M113.567 330.351 C 112.986 331.658,107.980 334.767,107.189 334.312 C 106.709 334.036,106.554 334.073,106.846 334.394 C 107.723 335.361,101.000 339.719,99.342 339.258 C 98.289 338.965,98.157 339.037,98.859 339.523 C 100.190 340.445,94.061 344.063,92.197 343.456 C 91.272 343.154,91.148 343.220,91.782 343.677 C 93.110 344.632,83.361 349.023,81.238 348.426 C 80.143 348.117,79.943 348.182,80.594 348.634 C 82.096 349.676,72.049 351.872,65.886 351.849 C 60.200 351.828,55.312 350.456,56.970 349.348 C 57.554 348.957,57.197 348.891,56.003 349.168 C 54.703 349.469,53.224 349.108,51.274 348.012 C 48.409 346.402,47.578 346.505,47.284 348.506 C 47.195 349.109,47.308 349.417,47.535 349.190 C 47.761 348.964,49.910 349.876,52.309 351.218 C 63.075 357.238,74.945 357.122,88.318 350.864 C 90.770 349.717,93.108 348.983,93.514 349.234 C 93.933 349.494,94.045 349.356,93.773 348.916 C 93.180 347.956,95.873 346.419,96.965 347.094 C 97.423 347.376,97.568 347.274,97.308 346.853 C 96.709 345.883,101.533 342.236,102.569 342.877 C 103.012 343.151,103.187 343.070,102.957 342.698 C 102.727 342.326,103.500 341.251,104.676 340.309 C 105.852 339.367,107.216 338.217,107.709 337.753 C 108.202 337.289,108.800 337.052,109.039 337.226 C 109.278 337.401,109.313 337.330,109.116 337.070 C 108.575 336.350,111.669 333.331,112.929 333.349 C 113.722 333.360,113.538 333.753,112.281 334.737 C 111.316 335.492,110.802 336.116,111.139 336.125 C 111.475 336.133,111.381 336.586,110.929 337.131 C 110.412 337.754,110.362 338.278,110.795 338.545 C 111.173 338.779,111.680 338.649,111.923 338.257 C 112.165 337.865,112.108 337.539,111.796 337.533 C 111.484 337.527,111.702 337.216,112.281 336.842 C 113.216 336.237,113.216 336.160,112.281 336.148 C 111.702 336.141,112.254 335.509,113.509 334.745 C 115.883 333.297,116.559 332.380,114.737 333.080 C 114.158 333.302,113.684 333.134,113.684 332.707 C 113.684 332.279,114.000 331.930,114.386 331.930 C 114.772 331.930,115.088 331.456,115.088 330.877 C 115.088 329.794,113.984 329.412,113.567 330.351 M289.840 332.299 C 290.312 332.868,291.212 333.347,291.840 333.364 C 293.957 333.422,287.975 336.054,282.386 337.524 C 272.283 340.182,264.830 340.781,258.674 339.428 C 250.211 337.568,248.247 338.075,253.767 340.694 C 262.987 345.069,279.874 342.881,294.859 335.369 C 302.007 331.786,302.832 328.986,295.749 332.347 C 293.605 333.364,293.193 333.366,291.187 332.365 C 289.338 331.443,289.120 331.432,289.840 332.299 M367.018 333.684 C 367.018 334.263,367.333 334.737,367.719 334.737 C 368.105 334.737,368.421 334.263,368.421 333.684 C 368.421 333.105,368.105 332.632,367.719 332.632 C 367.333 332.632,367.018 333.105,367.018 333.684 M257.368 333.829 C 258.237 333.996,259.658 333.996,260.526 333.829 C 261.395 333.661,260.684 333.524,258.947 333.524 C 257.211 333.524,256.500 333.661,257.368 333.829 M111.176 339.637 C 109.661 341.175,108.105 342.433,107.719 342.434 C 107.333 342.434,107.446 342.163,107.970 341.831 C 108.633 341.411,108.687 341.083,108.145 340.748 C 107.457 340.323,107.062 341.167,107.277 342.606 C 107.409 343.491,98.728 350.123,98.014 349.682 C 97.636 349.448,97.524 349.576,97.765 349.966 C 98.007 350.357,96.969 351.668,95.459 352.882 C 92.741 355.066,91.481 355.681,92.240 354.451 C 92.457 354.101,91.939 353.997,91.091 354.218 C 89.623 354.602,89.614 354.646,90.915 355.130 C 92.121 355.580,92.146 355.694,91.122 356.114 C 89.893 356.617,89.813 358.710,91.008 359.108 C 91.398 359.238,92.476 358.677,93.403 357.862 L 95.088 356.379 93.353 357.488 C 92.398 358.098,91.333 358.596,90.986 358.596 C 89.780 358.596,91.989 356.637,94.234 355.715 C 99.115 353.710,117.693 336.842,115.020 336.842 C 114.421 336.842,112.691 338.100,111.176 339.637 M344.942 345.001 C 344.185 349.038,340.821 349.836,339.907 346.195 C 339.583 344.906,340.156 343.485,342.194 340.517 L 344.912 336.559 345.136 339.667 C 345.259 341.377,345.172 343.777,344.942 345.001 M262.456 338.246 C 261.011 338.708,260.949 338.818,262.105 338.867 C 262.877 338.899,263.982 338.620,264.561 338.246 C 265.791 337.451,264.937 337.451,262.456 338.246 M136.091 339.166 L 137.796 340.184 135.564 340.674 C 134.337 340.944,133.326 341.376,133.317 341.635 C 133.308 341.894,132.086 343.003,130.601 344.101 C 126.771 346.933,124.562 351.592,124.560 356.842 C 124.560 359.158,124.276 361.526,123.931 362.105 C 123.433 362.940,123.490 362.985,124.206 362.323 C 124.919 361.664,125.423 361.954,126.599 363.699 C 131.257 370.611,140.893 372.758,150.442 369.011 C 152.326 368.272,153.905 367.758,153.951 367.869 C 155.995 372.753,159.139 374.234,164.227 372.709 C 174.812 369.538,175.791 356.641,165.397 357.300 L 161.556 357.544 161.758 352.708 C 161.873 349.952,161.710 348.276,161.379 348.811 C 160.955 349.498,160.675 349.261,160.342 347.935 C 160.092 346.936,158.970 345.241,157.851 344.168 C 156.173 342.561,155.967 342.032,156.679 341.160 C 157.423 340.251,157.350 340.210,156.162 340.867 C 155.102 341.453,154.285 341.362,152.653 340.475 C 151.159 339.663,148.542 339.285,143.860 339.205 C 140.193 339.141,136.561 338.878,135.789 338.619 C 134.808 338.290,134.898 338.455,136.091 339.166 M151.400 342.834 C 162.345 347.407,161.668 360.301,150.174 366.200 C 137.031 372.946,122.570 362.687,128.596 350.891 C 132.435 343.378,143.416 339.498,151.400 342.834 M231.049 344.206 C 229.793 344.752,227.926 346.081,226.900 347.161 C 225.564 348.567,225.172 348.747,225.516 347.795 C 225.930 346.653,225.843 346.596,224.895 347.383 C 224.109 348.035,224.025 348.440,224.601 348.796 C 225.208 349.172,225.204 349.676,224.585 350.833 C 219.526 360.285,228.383 371.943,237.673 368.061 C 240.594 366.841,241.483 366.735,240.000 367.783 C 239.177 368.365,239.164 368.470,239.939 368.261 C 240.484 368.114,241.012 367.432,241.113 366.745 C 241.214 366.058,241.771 365.128,242.351 364.678 C 245.450 362.273,247.756 351.495,245.604 349.474 C 245.399 349.281,244.709 348.302,244.071 347.298 C 241.720 343.597,235.725 342.173,231.049 344.206 M239.940 346.987 C 247.940 351.124,243.389 365.848,234.110 365.848 C 230.139 365.848,228.467 364.771,226.667 361.054 C 222.477 352.397,231.634 342.691,239.940 346.987 M336.534 354.848 C 335.967 362.346,334.638 363.538,330.000 360.709 C 327.008 358.885,327.053 358.694,331.655 353.724 C 336.728 348.244,337.028 348.313,336.534 354.848 M169.123 360.702 C 170.811 362.390,170.848 362.957,169.440 365.680 C 166.340 371.674,155.379 372.292,156.843 366.390 C 158.162 361.076,165.908 357.487,169.123 360.702 M328.168 363.832 C 331.223 365.971,331.704 368.971,329.368 371.307 C 324.635 376.040,320.841 372.874,322.756 365.789 C 323.646 362.500,325.374 361.875,328.168 363.832 M101.325 371.214 C 96.111 373.321,95.846 383.158,101.003 383.158 C 101.416 383.158,101.754 383.474,101.754 383.860 C 101.754 384.246,101.167 384.561,100.449 384.561 C 98.715 384.561,91.228 389.527,91.228 390.676 C 91.228 391.173,90.989 391.579,90.698 391.579 C 89.820 391.579,88.161 395.960,88.179 398.230 C 88.207 401.718,88.683 404.131,89.272 403.768 C 89.576 403.580,89.825 403.722,89.825 404.084 C 89.825 405.353,94.053 406.493,97.526 406.159 C 102.235 405.706,106.882 401.929,109.358 396.541 C 111.031 392.898,111.190 392.751,111.683 394.386 L 112.213 396.140 112.055 394.386 C 111.961 393.344,111.516 392.713,110.960 392.832 C 110.270 392.980,110.093 392.303,110.288 390.260 C 110.433 388.734,110.373 387.597,110.153 387.733 C 109.934 387.868,109.373 387.368,108.906 386.621 C 108.151 385.411,108.254 385.263,109.853 385.263 C 113.774 385.263,117.193 382.281,117.193 378.861 C 117.193 373.366,107.528 368.708,101.325 371.214 M319.539 373.906 C 322.847 376.889,322.144 380.315,317.653 383.090 C 313.096 385.907,311.579 384.933,311.579 379.195 C 311.579 372.608,315.332 370.115,319.539 373.906 M110.494 373.716 C 114.792 375.755,115.599 380.657,111.914 382.336 C 106.166 384.955,97.879 380.058,100.325 375.488 C 101.846 372.645,106.521 371.831,110.494 373.716 M278.492 374.805 C 284.499 376.900,276.831 381.441,270.270 379.674 C 266.964 378.784,266.348 376.884,268.947 375.593 C 272.169 373.993,275.397 373.727,278.492 374.805 M309.474 379.649 C 309.474 381.952,308.722 382.332,307.376 380.711 C 306.318 379.436,306.930 377.544,308.399 377.544 C 309.125 377.544,309.474 378.226,309.474 379.649 M270.660 383.458 C 273.906 387.231,271.849 392.661,266.382 394.749 C 255.428 398.932,249.407 386.908,260.000 382.004 C 263.361 380.448,268.698 381.176,270.660 383.458 M307.849 383.922 C 311.586 385.732,311.795 387.536,308.775 391.926 C 303.281 399.911,298.947 399.609,298.947 391.241 C 298.947 383.479,301.907 381.046,307.849 383.922 M106.890 389.624 C 108.613 391.941,107.795 395.745,104.810 399.292 C 98.688 406.567,88.684 404.025,91.295 395.858 C 93.665 388.449,103.184 384.643,106.890 389.624 M296.558 389.043 C 296.763 389.577,296.832 391.393,296.711 393.078 L 296.491 396.140 294.416 393.079 C 292.410 390.120,292.385 389.986,293.673 389.044 C 295.355 387.814,296.086 387.814,296.558 389.043 M291.274 393.709 C 296.145 396.316,297.757 403.895,294.263 407.763 C 287.968 414.731,284.941 413.785,284.923 404.842 C 284.904 395.404,287.135 391.494,291.274 393.709 M282.807 401.754 C 282.807 406.887,282.181 407.388,280.057 403.952 C 278.293 401.097,278.241 400.152,279.758 398.476 C 282.001 395.997,282.807 396.864,282.807 401.754 M59.065 401.732 C 59.499 402.685,60.112 403.306,60.426 403.112 C 60.740 402.917,60.466 402.138,59.816 401.379 C 58.265 399.567,58.111 399.639,59.065 401.732 M275.782 402.803 C 277.113 403.515,280.864 409.609,281.723 412.457 C 283.116 417.072,270.681 425.496,266.993 422.436 C 265.442 421.148,265.735 416.240,267.742 409.884 C 269.944 402.915,272.229 400.902,275.782 402.803 M165.263 407.853 C 151.737 411.966,138.302 412.322,131.423 408.749 C 128.921 407.450,128.239 408.815,130.483 410.632 C 135.415 414.626,156.196 414.275,167.407 410.010 C 173.651 407.634,175.439 406.695,175.439 405.794 C 175.439 404.692,176.085 404.562,165.263 407.853 M264.639 407.544 C 264.892 411.539,263.782 414.737,262.143 414.737 C 260.966 414.737,257.544 410.797,257.544 409.442 C 257.544 407.090,264.493 405.231,264.639 407.544 M255.443 413.687 C 267.358 419.848,261.384 434.165,247.160 433.540 L 242.456 433.333 242.544 431.228 C 242.686 427.833,247.100 417.556,249.518 414.993 C 252.033 412.326,252.579 412.205,255.443 413.687 M242.089 417.719 C 242.028 425.924,238.413 428.749,235.579 422.805 C 233.466 418.373,235.087 415.439,239.649 415.439 C 241.956 415.439,242.104 415.577,242.089 417.719 M195.439 418.246 C 193.650 419.014,195.495 419.014,197.895 418.246 C 199.305 417.794,199.374 417.680,198.246 417.663 C 197.474 417.652,196.211 417.914,195.439 418.246 M229.926 422.073 C 232.013 422.670,237.734 428.941,238.320 431.273 C 239.576 436.277,233.091 441.942,225.366 442.590 C 220.483 442.999,215.439 441.974,215.439 440.573 C 215.439 436.395,219.784 425.933,222.562 423.423 C 225.159 421.076,225.939 420.933,229.926 422.073 M217.249 425.643 C 215.338 433.254,212.388 438.157,210.950 436.110 C 210.420 435.355,208.689 433.011,207.103 430.902 C 203.854 426.581,203.845 426.599,209.933 424.961 C 216.014 423.325,217.789 423.490,217.249 425.643 M205.596 432.743 C 211.892 441.061,211.854 444.179,205.413 447.507 C 195.736 452.507,180.661 447.915,183.564 440.851 C 188.765 428.194,199.235 424.341,205.596 432.743 M128.126 430.396 C 131.522 433.317,128.149 436.480,123.989 434.275 C 119.933 432.126,117.181 430.060,117.559 429.449 C 118.462 427.988,126.125 428.675,128.126 430.396 M145.155 432.283 C 153.902 438.619,153.843 444.165,145.050 442.197 C 135.203 439.994,130.819 436.333,134.211 433.147 C 137.867 429.712,141.239 429.446,145.155 432.283 M156.964 431.292 C 157.621 433.004,155.342 437.193,153.753 437.193 C 152.145 437.193,149.150 432.733,149.734 431.210 C 150.309 429.713,156.384 429.781,156.964 431.292 M171.327 431.398 C 176.481 434.443,180.149 443.310,177.393 446.065 C 174.731 448.727,161.473 447.877,157.552 444.793 C 151.643 440.145,164.677 427.470,171.327 431.398 M185.000 431.204 C 185.454 432.387,182.423 438.266,181.390 438.206 C 180.399 438.149,176.074 431.552,176.537 430.804 C 177.219 429.700,184.556 430.047,185.000 431.204 M204.386 458.028 C 205.061 458.204,206.167 458.204,206.842 458.028 C 207.518 457.851,206.965 457.707,205.614 457.707 C 204.263 457.707,203.711 457.851,204.386 458.028 M203.333 459.443 C 204.202 459.610,205.623 459.610,206.491 459.443 C 207.360 459.275,206.649 459.139,204.912 459.139 C 203.175 459.139,202.465 459.275,203.333 459.443 M174.912 473.466 C 175.588 473.643,176.693 473.643,177.368 473.466 C 178.044 473.290,177.491 473.145,176.140 473.145 C 174.789 473.145,174.237 473.290,174.912 473.466 " stroke="none" fill="#000000" fill-rule="evenodd"></path></g></svg>